#!OML:ASF H:\Terrain\Patient Classification 1\Takeo\Monday\TakeoMonday.ASF
:FULLY-SPECIFIED
:DEGREES
111
root 8.75332 16.642 6.7331 -1.41614 -7.40534 -6.29772
lowerback 11.5736 -0.448635 8.48418
upperback 2.61521 0.539354 3.12007
thorax -3.69252 0.196179 -1.57937
lowerneck -12.8145 3.3879 -1.37234
upperneck -9.9323 4.46285 -3.75407
head -0.944406 2.26406 -0.808121
rclavicle -5.66536e-015 3.18055e-014
rhumerus -37.3175 19.0786 -90.2431
rradius 89.5845
rwrist -7.7081
rhand -39.8024 48.8957
rfingers 7.12502
rthumb -12.7773 19.3067
lclavicle -5.66536e-015 3.18055e-014
lhumerus -60.8583 -19.6822 101.25
lradius 97.2461
lwrist 29.2966
lhand -36.309 1.70311
lfingers 7.12502
lthumb -9.40794 31.4731
rfemur -18.1054 14.3274 33.7231
rtibia 47.3832
rfoot -23.8389 -6.65987
rtoes -4.88545
lfemur -14.3122 13.1879 -9.27888
ltibia 104.774
lfoot -5.93391 9.42483
ltoes -7.45369
112
root 8.74626 16.5984 7.07864 -1.62154 -7.93379 -5.13236
lowerback 11.8412 -0.204834 7.03493
upperback 2.80876 0.689897 2.83975
thorax -3.64062 0.287342 -1.09026
lowerneck -12.8389 3.44999 -1.28452
upperneck -10.2157 4.52699 -3.72734
head -1.02821 2.29749 -0.81644
rclavicle -7.85199e-015 -2.06736e-014
rhumerus -33.1099 20.8218 -89.2143
rradius 89.8865
rwrist -6.71077
rhand -39.8633 49.4246
rfingers 7.12502
rthumb -12.836 19.8393
lclavicle -7.85199e-015 -2.06736e-014
lhumerus -61.7208 -18.3333 100.29
lradius 95.6489
lwrist 28.951
lhand -36.9817 0.558953
lfingers 7.12502
lthumb -10.057 30.2986
rfemur -16.8605 14.6208 32.7444
rtibia 47.8591
rfoot -24.9065 -6.6115
rtoes -4.03841
lfemur -16.9506 13.1622 -11.0441
ltibia 106.624
lfoot -6.51929 10.4229
ltoes -7.64917
113
root 8.73716 16.5827 7.45235 -2.29563 -8.39754 -3.17012
lowerback 12.1831 0.119391 4.87054
upperback 3.07642 0.843143 2.2681
thorax -3.565 0.383688 -0.502579
lowerneck -12.8622 3.47255 -1.06347
upperneck -10.2833 4.5371 -3.5764
head -1.04429 2.29604 -0.805923
rclavicle 1.77912e-014 1.35174e-014
rhumerus -29.2803 22.1185 -88.2886
rradius 90.4
rwrist -5.69602
rhand -39.716 50.2029
rfingers 7.12502
rthumb -12.694 20.6087
lclavicle 1.77912e-014 1.35174e-014
lhumerus -62.7501 -17.1587 99.3053
lradius 94.211
lwrist 28.9084
lhand -37.3393 0.597939
lfingers 7.12502
lthumb -10.4019 30.3206
rfemur -14.9945 14.7717 30.9896
rtibia 48.1888
rfoot -25.9588 -6.4201
rtoes -2.76419
lfemur -18.9388 12.8388 -13.8522
ltibia 107.745
lfoot -7.29558 11.5004
ltoes -6.44457
114
root 8.74007 16.5926 7.84311 -2.92542 -9.3029 -2.32579
lowerback 12.5524 0.537481 4.01739
upperback 3.25762 1.29005 1.96416
thorax -3.57129 0.610998 -0.411529
lowerneck -12.676 3.42074 -0.761494
upperneck -10.2314 4.43387 -3.55827
head -1.05106 2.2358 -0.855038
rclavicle -4.17448e-015 3.97569e-016
rhumerus -26.0401 23.1826 -87.2492
rradius 91.2948
rwrist -4.43168
rhand -39.6323 50.3679
rfingers 7.12502
rthumb -12.6133 20.7687
lclavicle -4.17448e-015 3.97569e-016
lhumerus -64.0159 -16.035 98.52
lradius 92.9882
lwrist 28.9744
lhand -37.1168 1.47707
lfingers 7.12502
lthumb -10.1873 31.2104
rfemur -12.7209 15.2802 30.4657
rtibia 48.1984
rfoot -26.7534 -6.41268
rtoes -3.34037
lfemur -20.4915 13.0538 -15.1183
ltibia 108.552
lfoot -8.53399 12.0149
ltoes -4.66761
115
root 8.75575 16.6167 8.22232 -2.76074 -9.71758 -2.35959
lowerback 12.3645 0.6922 4.14909
upperback 3.237 1.49863 1.91246
thorax -3.47755 0.714846 -0.567901
lowerneck -12.5845 3.38447 -0.418298
upperneck -10.2264 4.34111 -3.65002
head -1.05482 2.1789 -0.944129
rclavicle 1.25234e-014 -1.74931e-014
rhumerus -22.9666 24.3472 -86.0685
rradius 92.4943
rwrist -3.52002
rhand -39.4221 50.1346
rfingers 7.12502
rthumb -12.4107 20.523
lclavicle 1.25234e-014 -1.74931e-014
lhumerus -65.1687 -15.0023 97.7752
lradius 92.117
lwrist 29.2604
lhand -36.6052 2.90237
lfingers 7.12502
lthumb -9.69374 32.6593
rfemur -11.0624 15.5845 30.6073
rtibia 47.6715
rfoot -27.2139 -6.48768
rtoes -3.31216
lfemur -23.0893 12.8368 -15.675
ltibia 109.305
lfoot -9.70788 12.6608
ltoes -3.50594
116
root 8.7726 16.6405 8.57595 -1.90078 -9.26312 -2.69233
lowerback 11.8705 0.578852 4.59473
upperback 2.90022 1.39244 1.97461
thorax -3.5536 0.655265 -0.732187
lowerneck -12.6536 3.31996 -0.279797
upperneck -9.94588 4.24828 -3.66715
head -0.952982 2.12397 -0.96934
rclavicle 3.10104e-014 -1.63003e-014
rhumerus -20.3162 25.1924 -84.9515
rradius 93.8622
rwrist -2.84387
rhand -39.1376 50.6167
rfingers 7.12502
rthumb -12.1364 20.9887
lclavicle 3.10104e-014 -1.63003e-014
lhumerus -66.4045 -14.42 97.3781
lradius 91.4852
lwrist 30.0216
lhand -37.0888 3.39663
lfingers 7.12502
lthumb -10.1604 33.1313
rfemur -10.1468 15.3799 30.8153
rtibia 46.6992
rfoot -27.3461 -6.49692
rtoes -2.75815
lfemur -26.8245 11.6568 -16.235
ltibia 109.906
lfoot -10.4083 13.5773
ltoes -4.01346
117
root 8.79246 16.674 8.94177 -1.44241 -8.85811 -3.2608
lowerback 11.7647 0.513361 5.46902
upperback 2.60647 1.42266 2.05388
thorax -3.78096 0.654703 -1.14407
lowerneck -12.6407 3.104 -0.513024
upperneck -9.56799 4.01474 -3.36089
head -0.851066 2.01109 -0.837226
rclavicle 2.68359e-015 -1.74931e-014
rhumerus -18.2724 25.3572 -84.0876
rradius 95.2264
rwrist -2.30293
rhand -39.1561 51.361
rfingers 7.12502
rthumb -12.1541 21.7341
lclavicle 2.68359e-015 -1.74931e-014
lhumerus -67.7388 -14.1754 97.1764
lradius 90.9849
lwrist 30.7353
lhand -37.6335 2.91889
lfingers 7.12502
lthumb -10.6857 32.6272
rfemur -8.51562 15.117 31.4494
rtibia 45.4693
rfoot -26.9702 -6.9064
rtoes -3.99307
lfemur -29.668 10.3179 -16.3339
ltibia 109.938
lfoot -10.8749 14.2124
ltoes -5.3622
118
root 8.81185 16.7403 9.34021 -1.45949 -8.79092 -3.04223
lowerback 11.6417 0.624598 5.6443
upperback 2.49156 1.57879 1.83632
thorax -3.81306 0.72748 -1.49064
lowerneck -12.5158 2.90267 -0.379066
upperneck -9.25839 3.73876 -3.41569
head -0.772503 1.86716 -0.882557
rclavicle -1.89839e-014 -3.97569e-016
rhumerus -16.6 25.2691 -83.5271
rradius 96.7268
rwrist -2.24639
rhand -39.5814 51.8986
rfingers 7.12502
rthumb -12.5643 22.2964
lclavicle -1.89839e-014 -3.97569e-016
lhumerus -69.0417 -13.9847 96.7605
lradius 90.6864
lwrist 30.863
lhand -37.3544 2.69156
lfingers 7.12502
lthumb -10.4165 32.4135
rfemur -6.26951 14.9798 31.3147
rtibia 44.1291
rfoot -26.4867 -7.12019
rtoes -5.46693
lfemur -31.503 9.02051 -17.2469
ltibia 109.133
lfoot -11.3133 14.5364
ltoes -5.41989
119
root 8.82345 16.829 9.74583 -1.34962 -8.84928 -2.14005
lowerback 11.2569 0.899119 5.02909
upperback 2.25135 1.83701 1.42836
thorax -3.84208 0.856717 -1.60277
lowerneck -11.7948 2.74158 -0.392145
upperneck -9.48204 3.52587 -3.17482
head -0.962938 1.77156 -0.825043
rclavicle 1.50579e-014 9.14409e-015
rhumerus -15.3831 25.2544 -83.1289
rradius 98.4464
rwrist -2.7238
rhand -40.3404 52.1187
rfingers 7.12502
rthumb -13.2959 22.5628
lclavicle 1.50579e-014 9.14409e-015
lhumerus -70.5442 -13.9473 96.396
lradius 90.5559
lwrist 30.5117
lhand -37.0024 2.45207
lfingers 7.12502
lthumb -10.077 32.1908
rfemur -4.30793 15.1366 30.351
rtibia 42.6966
rfoot -25.812 -6.81768
rtoes -7.06981
lfemur -33.4323 7.66048 -18.8551
ltibia 107.734
lfoot -11.7341 14.4457
ltoes -4.30061
120
root 8.83595 16.9274 10.1564 -1.21378 -8.6604 -1.54249
lowerback 10.8784 1.05793 4.78658
upperback 2.01613 1.99087 1.06842
thorax -3.86472 0.931067 -1.85673
lowerneck -11.2837 2.49053 -0.374603
upperneck -9.60521 3.191 -3.02592
head -1.08824 1.60999 -0.799154
rclavicle 1.69464e-014 1.39149e-014
rhumerus -14.3477 25.2612 -82.8496
rradius 100.156
rwrist -3.91542
rhand -40.2444 51.8664
rfingers 7.12502
rthumb -13.2033 22.3045
lclavicle 1.69464e-014 1.39149e-014
lhumerus -71.9056 -13.9142 95.9887
lradius 90.4827
lwrist 29.7804
lhand -36.5156 2.27109
lfingers 7.12502
lthumb -9.60726 32.032
rfemur -2.29379 15.3836 29.7834
rtibia 41.1367
rfoot -24.6509 -6.76958
rtoes -9.64904
lfemur -35.0909 5.88651 -19.9649
ltibia 105.956
lfoot -11.8344 13.8627
ltoes -5.1415
121
root 8.85077 17.017 10.5635 -0.964523 -8.30993 -1.71195
lowerback 10.5274 1.09837 5.34864
upperback 1.80242 2.08766 0.89633
thorax -3.86024 0.968702 -2.3572
lowerneck -11.3113 2.19481 -0.461959
upperneck -9.29987 2.83068 -2.70796
head -0.998314 1.42934 -0.690847
rclavicle -2.32578e-014 -1.66979e-014
rhumerus -13.4893 25.1733 -82.6134
rradius 101.947
rwrist -5.54788
rhand -39.5856 51.0197
rfingers 7.12502
rthumb -12.5683 21.4177
lclavicle -2.32578e-014 -1.66979e-014
lhumerus -73.0206 -13.8176 95.5382
lradius 90.3506
lwrist 29.0076
lhand -36.1122 1.95488
lfingers 7.12502
lthumb -9.21811 31.7334
rfemur -0.254408 15.5484 30.1318
rtibia 39.4965
rfoot -22.908 -6.90288
rtoes -10.8173
lfemur -36.6472 4.1919 -20.02
ltibia 104.04
lfoot -11.6025 12.92
ltoes -8.60594
122
root 8.86259 17.0962 10.9711 -0.578437 -8.17198 -2.36269
lowerback 10.1319 1.25851 6.24578
upperback 1.4822 2.38791 0.959271
thorax -3.91811 1.0982 -2.82513
lowerneck -11.0532 1.94658 -0.577743
upperneck -8.93907 2.52216 -2.66708
head -0.930824 1.27783 -0.665839
rclavicle -1.07344e-014 -9.14409e-015
rhumerus -13.1154 25.1072 -82.2476
rradius 103.773
rwrist -7.03712
rhand -39.4748 50.2265
rfingers 7.12502
rthumb -12.4614 20.618
lclavicle -1.07344e-014 -9.14409e-015
lhumerus -74.186 -13.8344 95.4442
lradius 90.1771
lwrist 28.7423
lhand -35.7642 1.39261
lfingers 7.12502
lthumb -8.88223 31.1857
rfemur 1.70214 15.5747 30.916
rtibia 37.8008
rfoot -20.4819 -6.90498
rtoes -13.1368
lfemur -38.1896 2.99481 -19.3771
ltibia 101.883
lfoot -11.9788 11.9071
ltoes -10.1259
123
root 8.8717 17.1957 11.3975 -0.512647 -8.22099 -2.42036
lowerback 9.79693 1.51779 6.46886
upperback 1.28004 2.73643 0.881632
thorax -3.89687 1.2639 -3.06519
lowerneck -11.1219 1.59515 -0.77808
upperneck -8.39088 2.10103 -2.41247
head -0.75856 1.06754 -0.559383
rclavicle 3.926e-015 -1.43125e-014
rhumerus -12.8486 25.0753 -81.9367
rradius 105.303
rwrist -8.47833
rhand -38.6501 49.5037
rfingers 7.12502
rthumb -11.6663 19.8485
lclavicle 3.926e-015 -1.43125e-014
lhumerus -75.2325 -13.852 95.3116
lradius 90.0673
lwrist 28.6495
lhand -35.0256 1.41743
lfingers 7.12502
lthumb -8.16944 31.2395
rfemur 3.79682 15.3754 30.965
rtibia 36.1969
rfoot -17.5793 -6.54343
rtoes -16.9527
lfemur -38.8728 1.78756 -19.4205
ltibia 99.1232
lfoot -12.9684 11.192
ltoes -9.29374
